#!OML:ASF F:\VICON\USERDATA\INSTALL\rory3\rory3.ASF
:FULLY-SPECIFIED
:DEGREES
124
root 0.576993 16.2013 -13.3369 2.04888 -2.45464 7.22168
lowerback 13.0139 -0.0132096 -10.7039
upperback -4.51197 -1.84501 0.92262
thorax -12.0486 -0.00128949 7.52117
lowerneck -10.6413 -4.7229 -2.82824
upperneck 18.7047 -6.53552 2.61187
head 7.69463 -3.08333 0.680229
rclavicle -7.56624e-015 1.59028e-015
rhumerus -44.9256 -0.851491 -84.0695
rradius 27.2378
rwrist 7.31337
rhand -8.52682 21.4373
rfingers 7.12502
rthumb 17.4019 -7.80375
lclavicle -7.56624e-015 1.59028e-015
lhumerus -31.8631 3.03264 86.2994
lradius 25.2633
lwrist 0.614559
lhand -5.53893 17.7834
lfingers 7.12502
lthumb 20.2755 46.7452
rfemur -36.8285 23.01 1.99273
rtibia 25.0559
rfoot -15.2022 -15.6061
rtoes 17.4649
lfemur 16.5153 -12.3077 -34.246
ltibia -4.77083e-014
lfoot -13.0513 10.4466
ltoes 4.97653
125
root 0.556534 16.1849 -13.2214 2.27377 -2.26505 7.38565
lowerback 12.9265 -0.0605135 -10.7809
upperback -4.58215 -1.92111 0.87917
thorax -12.0618 -0.0299955 7.53074
lowerneck -10.7493 -4.68913 -2.81664
upperneck 18.6317 -6.49028 2.63748
head 7.68907 -3.05765 0.689364
rclavicle 1.54804e-014 7.95139e-016
rhumerus -44.8618 -1.23128 -83.7859
rradius 26.9007
rwrist 7.85737
rhand -8.43665 20.9652
rfingers 7.12502
rthumb 17.4887 -8.26818
lclavicle 1.54804e-014 7.95139e-016
lhumerus -31.7408 3.41983 86.2119
lradius 25.1282
lwrist 0.0649691
lhand -5.34579 17.4311
lfingers 7.12502
lthumb 20.4611 46.373
rfemur -36.9268 22.8701 1.65737
rtibia 24.7499
rfoot -16.0176 -14.9223
rtoes 22.6197
lfemur 16.714 -12.3516 -34.3813
ltibia -1.59028e-014
lfoot -13.3287 10.2866
ltoes 4.05972
126
root 0.497582 16.1648 -13.0863 2.11976 -2.31953 6.58899
lowerback 12.8701 -0.0140432 -10.5289
upperback -4.4976 -1.76352 1.21186
thorax -11.9556 0.0316616 7.72479
lowerneck -10.7122 -4.62788 -2.94551
upperneck 18.7318 -6.40617 2.73675
head 7.72077 -3.01688 0.751281
rclavicle 1.00759e-014 1.74931e-014
rhumerus -44.9595 -1.39796 -83.6408
rradius 26.6656
rwrist 8.04323
rhand -8.6497 20.6539
rfingers 7.12502
rthumb 17.2836 -8.59751
lclavicle 1.00759e-014 1.74931e-014
lhumerus -31.76 3.55435 86.211
lradius 25.1935
lwrist -0.193638
lhand -5.2199 17.5923
lfingers 7.12502
lthumb 20.5821 46.5212
rfemur -36.7834 24.4395 2.28242
rtibia 24.5727
rfoot -17.0937 -15.4878
rtoes 27.3462
lfemur 17.4265 -12.0761 -33.3723
ltibia 1.90833e-014
lfoot -13.8452 10.0143
ltoes 4.33418
127
root 0.470788 16.1367 -12.9516 2.00532 -2.19772 6.62905
lowerback 12.7278 -0.0519086 -10.5489
upperback -4.38603 -1.79449 1.21074
thorax -11.7334 -0.0010775 7.73253
lowerneck -10.5706 -4.60788 -3.01308
upperneck 18.6887 -6.36888 2.74289
head 7.68253 -3.00537 0.771943
rclavicle 1.08089e-015 1.35174e-014
rhumerus -45.0192 -1.5262 -83.4863
rradius 26.287
rwrist 8.30823
rhand -8.93271 21.2125
rfingers 7.12502
rthumb 17.0112 -8.06268
lclavicle 1.08089e-015 1.35174e-014
lhumerus -31.5564 3.1759 86.4214
lradius 25.138
lwrist 0.262247
lhand -5.47825 18.0891
lfingers 7.12502
lthumb 20.3338 47.0446
rfemur -36.4562 24.4243 2.5034
rtibia 24.6649
rfoot -17.0979 -14.9443
rtoes 30.9269
lfemur 18.1199 -11.9708 -33.4356
ltibia 5.725e-014
lfoot -14.217 9.90648
ltoes 3.44934
128
root 0.452906 16.1124 -12.833 2.16073 -1.79558 6.96864
lowerback 12.6751 -0.219954 -10.6625
upperback -4.42807 -2.04905 1.09881
thorax -11.6973 -0.119728 7.72381
lowerneck -10.692 -4.58149 -2.90537
upperneck 18.7236 -6.32373 2.60989
head 7.7062 -2.98689 0.71242
rclavicle 1.26725e-015 -4.13472e-014
rhumerus -45.0026 -1.64267 -83.3438
rradius 25.8262
rwrist 8.51189
rhand -9.16743 21.8846
rfingers 7.12502
rthumb 16.7853 -7.40986
lclavicle 1.26725e-015 -4.13472e-014
lhumerus -31.3617 3.31077 86.4033
lradius 24.8512
lwrist 0.353838
lhand -5.51242 18.2932
lfingers 7.12502
lthumb 20.301 47.2522
rfemur -36.2642 23.279 2.61533
rtibia 24.9641
rfoot -16.519 -13.9441
rtoes 33.9445
lfemur 18.4544 -12.202 -33.7978
ltibia 2.22639e-014
lfoot -14.4225 9.83774
ltoes 2.62843
